# xmcd
#
# Track frame offsets: 
#        182
#        9170
#        26955
#        39525
#        58982
#        69857
#        85157
#        103982
#        115982
#        129482
#        150632
#        168332
#        194807
#        208382
#        219707
#        236507
#        254657
#        273707
#        287882
#        301232
#        317882
#        329282
#
# Disc length: 4550 seconds
#
# Revision: 5
# Processed by: cddbd v1.5.2PL0 Copyright (c) Steve Scherf et al.
# Submitted via: ExactAudioCopyFreeDBPlugin 1.0
#
DISCID=5811c416
DTITLE=Gaither Gospel Series - Down By the Tabernacle Gaither with Bil
DTITLE=l and Gloria Gaither and their Homecoming Friends
DYEAR=1998
DGENRE=country
TTITLE0=Ben Speer, Glen Payne, Terry Blackwood, Jake Hess, George Youn
TTITLE0=ce, Ivan Parker, Jim Hill, Joel Hemphill, Bob Cain - Old Camp 
TTITLE0=Meeting
TTITLE1=James Blackwood, Jack Toney, Squire Parsons, Ben Speer, George
TTITLE1=Younce, Ernie Haase, Glen Payne - The Old Country Church
TTITLE2=Russ Taff, Candy Hemphill Christmas, Lulu Roman, Stephen Hill,
TTITLE2=Joyce McCollough, Bob Cain, Sonya Isaacs Surrett - The Tabern
TTITLE2=acle
TTITLE3=Sue Dodge - Just Tell Them When You Saw Me
TTITLE4=Ann Downing, Bob Cain - The Wesley Brothers
TTITLE5=The Martins - Well Water
TTITLE6=Reggie Smith, Joy Gardner, Stephen Hill, Vestal Goodman - Rock
TTITLE6=of Ages
TTITLE7=Candy Hemphill Christmas, Kirk Talley - There Is Power In The 
TTITLE7=Blood
TTITLE8=LaBreeska Hemphill - Mansion Over The Hilltop
TTITLE9=Jake Hess - Come Sunday
TTITLE10=The Gaither Vocal Band, Janet Paschal - Tell Me
TTITLE11=Tanya Goodman Sykes, Reggie Smith, Wesley Pritchard, Cynthia 
TTITLE11=Clawson, Ivan Parker - Tell Me The Story of Jesus
TTITLE12=The Happy Goodmans - Wont It Be Wonderful There
TTITLE13=Dayna Ashley, Squire Parsons, Jimmy Blackwoord, The Hayes Fam
TTITLE13=ily - Down at the Cross
TTITLE14=The Homecoming Friends, Joy Gardneer, Ivan Parker - Just As I
TTITLE14=Am - At The Altar
TTITLE15=George Younee, Donnie Summer - Thanks To Calvary
TTITLE16=Terry McMillan - Amazing Grace
TTITLE17=Larnelle Harris - I Go to The Rock
TTITLE18=The Isaacs - The Least I Can Do
TTITLE19=Guy Penrod and the Gaither Vocal Band - The Baptism of Jesse 
TTITLE19=Taylor
TTITLE20=Russ Taff, Jessy Dixon, Stephen Hill - I Saw The Light
TTITLE21=The Hayes Family, Tanya Goodman Sykes - Jewels (When He Comet
TTITLE21=h)
EXTD=
EXTT0=
EXTT1=
EXTT2=
EXTT3=
EXTT4=
EXTT5=
EXTT6=
EXTT7=
EXTT8=
EXTT9=
EXTT10=
EXTT11=
EXTT12=
EXTT13=
EXTT14=
EXTT15=
EXTT16=
EXTT17=
EXTT18=
EXTT19=
EXTT20=
EXTT21=
PLAYORDER=
